<svg xmlns="http://www.w3.org/2000/svg" viewBox="0 0 512 512">
<defs><linearGradient id="g" x1="0" x2="1" y1="0" y2="0">
<stop offset="0" stop-color="#B7845F"/><stop offset=".3" stop-color="#E29DAE"/><stop offset=".5" stop-color="#E9E6E0"/><stop offset=".72" stop-color="#86ABD4"/><stop offset="1" stop-color="#AE96D6"/>
</linearGradient></defs>
<rect width="512" height="512" rx="112" fill="#1D1C1A"/>
<path d="M96.0 256.0 L103.4 240.0 L110.9 266.4 L118.3 218.3 L125.8 259.7 L133.2 240.1 L140.7 197.9 L148.1 257.1 L155.5 184.8 L163.0 245.1 L170.4 181.8 L177.9 182.1 L185.3 241.8 L192.7 319.5 L200.2 180.7 L207.6 199.2 L215.1 282.7 L222.5 351.3 L230.0 272.6 L237.4 233.5 L244.8 360.4 L252.3 156.3 L259.7 334.8 L267.2 209.9 L274.6 178.5 L282.0 173.6 L289.5 215.2 L296.9 322.2 L304.4 190.5 L311.8 272.3 L319.3 283.0 L326.7 232.0 L334.1 264.6 L341.6 180.5 L349.0 183.9 L356.5 210.7 L363.9 281.9 L371.3 246.5 L378.8 234.0 L386.2 264.9 L393.7 251.9 L401.1 242.1 L408.6 269.5 L416.0 256.0" fill="none" stroke="url(#g)" stroke-width="15" stroke-linejoin="round" stroke-linecap="round"/>
</svg>
